# xmcd CD database file
#
# Track frame offsets:
#	183
#	19410
#	40493
#	63230
#	86528
#	116555
#	132073
#	148785
#	161943
#	179138
#	196653
#
# Disc length: 2860 seconds
#
# Revision: 0
# Processed by: cddbd v1.4PL0 Copyright (c) Steve Scherf et al.
# Submitted via: CDex 1.50Beta7
#
DISCID=9f0b2a0b
DTITLE=Ella Fitzgerald - Jazz Vol. 7
DYEAR=1900
DGENRE=Jazz
TTITLE0=It Don't Mean a Thing (If It Ain't got that Swing)
TTITLE1=Love you madly
TTITLE2=Don't get around mouch any more
TTITLE3=In a mellow Tone
TTITLE4=Take the 'A' Train
TTITLE5=Cottontail
TTITLE6=Squatty Roo
TTITLE7=Everything but you
TTITLE8=Drop me off in Harlem
TTITLE9=Caravan
TTITLE10=Rocks in my bed
EXTD=
EXTT0=
EXTT1=
EXTT2=
EXTT3=
EXTT4=
EXTT5=
EXTT6=
EXTT7=
EXTT8=
EXTT9=
EXTT10=
PLAYORDER=
